<mxfile host="app.diagrams.net" modified="2023-10-21T11:22:28.655Z" agent="Mozilla/5.0 (Windows NT 10.0; Win64; x64; rv:109.0) Gecko/20100101 Firefox/118.0" version="21.6.9" etag="7g-Xgi4afPrRaWEmeSos" type="github">
  <diagram name="第 1 页" id="V0icccf3SqFHT4G_UdZa">
    <mxGraphModel>
      <root>
        <mxCell id="0" />
        <mxCell id="1" parent="0" />
      </root>
    </mxGraphModel>
  </diagram>
</mxfile>
